<svg width="285" height="230" viewBox="0 0 285 230" fill="none" xmlns="http://www.w3.org/2000/svg">
<g clip-path="url(#clip0)">
<path d="M80.2252 152.942C98.0829 152.942 112.559 138.448 112.559 120.568C112.559 102.689 98.0829 88.1941 80.2252 88.1941C62.3676 88.1941 47.8911 102.689 47.8911 120.568C47.8911 138.448 62.3676 152.942 80.2252 152.942Z" fill="#E6E6E6"/>
<path d="M71.4892 167.843L79.4429 172.778V139.421L70.5277 133.89C69.7907 133.432 69.2521 132.714 69.0187 131.878C69.8704 131.715 70.7521 131.879 71.4892 132.336L79.4429 137.271V124.336C79.4429 121.834 79.7494 119.341 80.3556 116.913C80.9617 119.341 81.2683 121.834 81.2683 124.336V145.448L93.0023 138.168C93.9392 137.587 95.0233 137.287 96.1254 137.305C95.651 138.302 94.9007 139.14 93.9637 139.722L81.2682 147.598V226.485H79.4429V174.928L70.5277 169.397C69.7906 168.94 69.2521 168.222 69.0187 167.386C69.8704 167.223 70.7521 167.386 71.4892 167.843Z" fill="#CCCCCC"/>
<path d="M32.3341 155.691C50.1917 155.691 64.6682 141.197 64.6682 123.317C64.6682 105.437 50.1917 90.9429 32.3341 90.9429C14.4765 90.9429 0 105.437 0 123.317C0 141.197 14.4765 155.691 32.3341 155.691Z" fill="#E6E6E6"/>
<path d="M41.0702 170.592L33.1164 175.527V142.17L42.0316 136.638C42.7687 136.181 43.3072 135.463 43.5406 134.627C42.6889 134.464 41.8072 134.628 41.0701 135.085L33.1164 140.02V127.085C33.1164 124.582 32.8099 122.089 32.2037 119.662C31.5976 122.089 31.2911 124.582 31.2911 127.085V148.197L19.5571 140.917C18.6202 140.335 17.5361 140.036 16.434 140.054C16.9084 141.05 17.6587 141.889 18.5956 142.47L31.2911 150.347V226.659H33.1164V177.677L42.0316 172.145C42.7687 171.688 43.3072 170.97 43.5406 170.134C42.689 169.971 41.8072 170.135 41.0702 170.592Z" fill="#CCCCCC"/>
<path d="M55.8221 111.48C86.5684 111.48 111.493 86.5247 111.493 55.7402C111.493 24.9557 86.5684 0 55.8221 0C25.0758 0 0.15094 24.9557 0.15094 55.7402C0.15094 86.5247 25.0758 111.48 55.8221 111.48Z" fill="#E6E6E6"/>
<path d="M70.8633 137.136L57.169 145.632V88.1995L72.5187 78.676C73.7877 77.8887 74.7151 76.6527 75.1169 75.2131L75.1169 75.2131H75.1169C73.6505 74.9326 72.1324 75.2139 70.8633 76.0013L57.169 84.4977V62.2271C57.169 57.9187 56.6413 53.6266 55.5976 49.4469C54.554 53.6266 54.0263 57.9187 54.0263 62.2271V98.5769L33.8233 86.0423C32.2101 85.0414 30.3436 84.5258 28.446 84.5569C29.2628 86.2721 30.5547 87.7161 32.1679 88.717L54.0263 102.279V226.782H57.169V149.334L72.5187 139.81C73.7878 139.023 74.7151 137.787 75.1169 136.347L75.1169 136.347H75.1169C73.6505 136.067 72.1324 136.348 70.8633 137.136Z" fill="#CCCCCC"/>
<path d="M285 226.485H22.2034V227.151H285V226.485Z" fill="#3F3D56"/>
<path d="M217.32 100.564L204.277 108.104L211.807 121.163L224.85 113.623L217.32 100.564Z" fill="#FFE49E"/>
<path d="M217.485 123.885L209.622 110.248L223.241 102.376L231.104 116.012L217.485 123.885ZM210.531 110.492L217.729 122.975L230.196 115.768L222.998 103.286L210.531 110.492Z" fill="#2F2E41"/>
<path d="M205.284 160.528C208.774 160.528 211.604 157.694 211.604 154.199C211.604 150.704 208.774 147.871 205.284 147.871C201.793 147.871 198.963 150.704 198.963 154.199C198.963 157.694 201.793 160.528 205.284 160.528Z" fill="#D0CDE1"/>
<path d="M209.941 160.861C208.625 160.861 207.339 160.47 206.244 159.738C205.15 159.006 204.298 157.966 203.794 156.749C203.291 155.531 203.159 154.192 203.415 152.9C203.672 151.608 204.306 150.421 205.236 149.489C206.167 148.557 207.352 147.923 208.643 147.666C209.933 147.409 211.271 147.541 212.487 148.045C213.702 148.549 214.741 149.403 215.473 150.498C216.204 151.594 216.594 152.882 216.594 154.199C216.594 155.966 215.893 157.66 214.645 158.91C213.397 160.159 211.705 160.861 209.941 160.861ZM209.941 148.204C208.756 148.204 207.599 148.556 206.614 149.214C205.629 149.873 204.862 150.81 204.409 151.905C203.956 153.001 203.837 154.206 204.068 155.369C204.299 156.532 204.869 157.6 205.707 158.439C206.544 159.277 207.611 159.848 208.773 160.079C209.934 160.311 211.138 160.192 212.232 159.738C213.326 159.284 214.261 158.516 214.919 157.53C215.577 156.544 215.928 155.385 215.928 154.199C215.928 152.609 215.298 151.084 214.175 149.96C213.052 148.836 211.529 148.204 209.941 148.204Z" fill="#2F2E41"/>
<path d="M245.156 228H183.948C183.198 227.999 182.479 227.701 181.949 227.17C181.419 226.639 181.121 225.92 181.12 225.169V168.215C181.121 167.464 181.419 166.745 181.949 166.214C182.479 165.683 183.198 165.385 183.948 165.384H245.156C245.906 165.385 246.624 165.683 247.155 166.214C247.685 166.745 247.983 167.464 247.984 168.215V225.169C247.983 225.92 247.685 226.639 247.155 227.17C246.624 227.701 245.906 227.999 245.156 228Z" fill="white"/>
<path d="M218.876 230H210.227C209.477 229.999 208.759 229.701 208.228 229.17C207.698 228.639 207.4 227.919 207.399 227.169V166.523C207.4 165.772 207.698 165.053 208.228 164.522C208.759 163.991 209.477 163.693 210.227 163.692H218.876C219.626 163.693 220.344 163.991 220.874 164.522C221.404 165.053 221.703 165.772 221.703 166.523V227.169C221.703 227.919 221.404 228.639 220.874 229.17C220.344 229.701 219.626 229.999 218.876 230Z" fill="#FFBE18"/>
<path d="M261.418 159.746C261.061 165.621 253.134 169.918 253.134 169.918C253.134 169.918 245.787 164.689 246.145 158.814C246.502 152.939 254.429 148.642 254.429 148.642C254.429 148.642 261.776 153.871 261.418 159.746Z" fill="#FFBE18"/>
<path d="M261.777 178.078C255.908 177.738 251.592 169.815 251.592 169.815C251.592 169.815 256.791 162.442 262.66 162.782C268.53 163.122 272.846 171.045 272.846 171.045C272.846 171.045 267.647 178.417 261.777 178.078Z" fill="#FFBE18"/>
<path opacity="0.1" d="M247.817 172.352V194.094L226.218 165.55H242.671L247.817 172.352Z" fill="black"/>
<path d="M266.154 209.57C265.717 209.571 265.285 209.47 264.894 209.276C264.502 209.082 264.161 208.799 263.897 208.45L218.897 148.984C218.673 148.688 218.509 148.35 218.415 147.99C218.322 147.631 218.299 147.256 218.35 146.888C218.401 146.519 218.523 146.165 218.711 145.844C218.899 145.523 219.147 145.242 219.443 145.018L226.072 139.989C226.368 139.765 226.705 139.601 227.065 139.507C227.424 139.413 227.798 139.39 228.166 139.441C228.534 139.492 228.888 139.615 229.208 139.803C229.529 139.991 229.809 140.24 230.033 140.536L275.033 200.002C275.257 200.298 275.421 200.636 275.515 200.996C275.609 201.355 275.631 201.73 275.58 202.098C275.53 202.467 275.407 202.821 275.219 203.142C275.032 203.463 274.783 203.744 274.487 203.968L267.858 208.997C267.368 209.369 266.769 209.571 266.154 209.57Z" fill="white"/>
<path d="M248.142 163.363L236.74 172.012L245.379 183.427L256.78 174.778L248.142 163.363Z" fill="#FFBE18"/>
<path d="M189.492 119.862L185.594 134.427L200.141 138.33L204.039 123.765L189.492 119.862Z" fill="#D0CDE1"/>
<path d="M193.97 140.508L178.78 136.433L182.85 121.223L198.04 125.299L193.97 140.508ZM179.595 135.962L193.5 139.692L197.225 125.77L183.321 122.039L179.595 135.962Z" fill="#2F2E41"/>
<path d="M129.984 175.859C130.384 175.476 130.695 175.009 130.895 174.492C131.095 173.976 131.18 173.421 131.143 172.868C131.106 172.315 130.948 171.777 130.681 171.292C130.414 170.806 130.044 170.385 129.597 170.059L123.488 120.755L115.595 123.105L124.116 171.086C123.618 171.874 123.426 172.818 123.576 173.739C123.727 174.66 124.209 175.494 124.933 176.082C125.656 176.67 126.57 176.973 127.501 176.932C128.432 176.89 129.315 176.509 129.984 175.859Z" fill="#FFB8B8"/>
<path d="M137.3 222.984H141.917L144.114 205.157H137.3V222.984Z" fill="#FFB8B8"/>
<path d="M150.819 227.276H136.311V221.664H145.727C147.077 221.664 148.373 222.201 149.328 223.157C150.283 224.114 150.819 225.41 150.819 226.763V227.276Z" fill="#2F2E41"/>
<path d="M105.378 215.785L109.705 217.397L117.971 201.455L111.585 199.076L105.378 215.785Z" fill="#FFB8B8"/>
<path d="M116.554 224.527L102.956 219.463L104.911 214.202L113.735 217.489C115.001 217.96 116.028 218.916 116.59 220.146C117.153 221.375 117.204 222.778 116.733 224.046L116.554 224.527L116.554 224.527Z" fill="#2F2E41"/>
<path d="M129.019 107.956C133.84 107.956 137.748 104.043 137.748 99.2166C137.748 94.39 133.84 90.4773 129.019 90.4773C124.199 90.4773 120.291 94.39 120.291 99.2166C120.291 104.043 124.199 107.956 129.019 107.956Z" fill="#FFB8B8"/>
<path d="M115.367 121.646C115.094 113.596 123.543 108.012 130.652 111.781C131.558 112.261 140.911 120.217 141.263 125.157C141.615 130.098 142.32 138.214 142.32 138.214L152.189 211.969L131.042 210.911L133.596 189.395L119.85 211.275L103.198 205.97L123.64 147.037C123.64 147.037 115.781 133.845 115.367 121.646Z" fill="#2F2E41"/>
<path d="M115.533 124.448L116.891 142.123C116.905 142.308 116.989 142.48 117.124 142.606C117.26 142.732 117.438 142.802 117.623 142.802H123.598C123.719 142.802 123.838 142.772 123.944 142.715C124.051 142.658 124.141 142.576 124.208 142.475C124.275 142.374 124.317 142.259 124.328 142.139C124.34 142.018 124.322 141.897 124.276 141.785L116.943 124.11C116.876 123.948 116.753 123.816 116.598 123.737C116.442 123.658 116.264 123.636 116.094 123.677C115.924 123.718 115.774 123.818 115.672 123.959C115.569 124.101 115.52 124.274 115.533 124.448Z" fill="#2F2E41"/>
<path d="M146.218 172.796C146.57 172.369 146.824 171.869 146.962 171.332C147.101 170.796 147.12 170.235 147.019 169.69C146.917 169.146 146.698 168.63 146.376 168.179C146.054 167.728 145.637 167.353 145.155 167.081L133.325 118.832L125.761 122.09L139.832 168.743C139.429 169.585 139.349 170.545 139.606 171.442C139.863 172.339 140.44 173.11 141.227 173.61C142.014 174.109 142.957 174.302 143.877 174.153C144.796 174.003 145.629 173.52 146.218 172.796Z" fill="#FFB8B8"/>
<path d="M126.812 114.57C126.812 114.57 124.345 119.511 126.812 128.333C129.279 137.156 131.042 144.566 131.042 144.566C131.042 144.566 136.681 141.037 139.148 142.096C141.615 143.155 135.245 118.578 135.245 118.578C135.245 118.578 131.394 110.336 126.812 114.57Z" fill="#2F2E41"/>
<path d="M131.067 100.58C131.185 98.7668 133.47 98.7047 135.285 98.6875C137.1 98.6703 139.27 98.7352 140.297 97.2369C140.975 96.2467 140.846 94.872 140.285 93.8103C139.724 92.7487 138.802 91.9322 137.895 91.1467C135.552 89.1187 133.138 87.1068 130.326 85.8087C127.514 84.5107 124.219 83.9862 121.302 85.0282C117.719 86.3082 112.876 92.8972 112.458 96.6828C112.04 100.468 113.551 104.327 116.098 107.156C118.645 109.985 124.475 108.844 128.143 109.85C125.913 106.69 127.383 100.946 130.956 99.4705L131.067 100.58Z" fill="#2F2E41"/>
</g>
<defs>
<clipPath id="clip0">
<rect width="285" height="230" fill="white"/>
</clipPath>
</defs>
</svg>
