<svg width="288" height="242" viewBox="0 0 288 242" fill="none" xmlns="http://www.w3.org/2000/svg">
<path d="M32.1669 133.669C34.4535 133.669 36.3072 131.813 36.3072 129.524C36.3072 127.234 34.4535 125.378 32.1669 125.378C29.8803 125.378 28.0266 127.234 28.0266 129.524C28.0266 131.813 29.8803 133.669 32.1669 133.669Z" fill="white"/>
<path d="M50.3205 167.788C52.6071 167.788 54.4608 165.932 54.4608 163.643C54.4608 161.353 52.6071 159.498 50.3205 159.498C48.0338 159.498 46.1802 161.353 46.1802 163.643C46.1802 165.932 48.0338 167.788 50.3205 167.788Z" fill="white"/>
<path d="M36.3072 159.179C38.5938 159.179 40.4474 157.323 40.4474 155.033C40.4474 152.744 38.5938 150.888 36.3072 150.888C34.0205 150.888 32.1669 152.744 32.1669 155.033C32.1669 157.323 34.0205 159.179 36.3072 159.179Z" fill="white"/>
<path d="M202.012 232.838H131.539C131.539 232.838 130.111 211.861 138.563 211.623C147.015 211.385 146.062 220.92 156.657 207.809C167.252 194.699 180.108 195.414 181.775 203.161C183.441 210.908 178.561 217.106 187.489 215.199C196.417 213.292 209.273 218.297 202.012 232.838Z" fill="white"/>
<path d="M165.586 232.843L165.348 232.833C165.903 219.022 168.792 210.149 171.117 205.137C173.643 199.695 176.076 197.492 176.1 197.47L176.259 197.648C176.235 197.67 173.83 199.851 171.325 205.256C169.012 210.247 166.138 219.084 165.586 232.843Z" fill="#F2F2F2"/>
<path d="M191.091 232.871L190.863 232.805C193.615 223.347 200.096 217.376 200.161 217.316L200.321 217.493C196.022 221.776 192.851 227.06 191.091 232.871Z" fill="#F2F2F2"/>
<path d="M142.639 232.855L142.403 232.822C143.172 227.644 142.359 222.354 140.071 217.647C139.133 215.673 137.891 213.858 136.39 212.269L136.555 212.097C138.075 213.706 139.333 215.543 140.284 217.542C142.593 222.291 143.414 227.629 142.639 232.855Z" fill="#F2F2F2"/>
<path d="M211.576 233.157H123.938L123.918 232.86C123.868 232.12 122.75 214.679 128.394 208.456C128.954 207.799 129.646 207.266 130.424 206.892C131.202 206.518 132.049 206.312 132.912 206.286C136.591 206.181 138.903 207.561 140.768 208.668C144.283 210.756 146.605 212.135 155.048 201.688C164.194 190.369 174.062 187.934 179.735 189.288C183.401 190.163 185.927 192.636 186.666 196.073C187.366 199.328 187.143 202.386 186.964 204.843C186.773 207.472 186.621 209.548 187.7 210.489C188.6 211.274 190.397 211.346 193.354 210.714C199.37 209.429 207.763 210.528 211.977 215.979C214.243 218.911 216.029 224.241 211.664 232.981L211.576 233.157ZM124.537 232.519H211.182C214.434 225.912 214.536 220.331 211.473 216.369C207.608 211.369 199.5 210.053 193.487 211.338C190.274 212.024 188.359 211.911 187.281 210.97C185.963 209.82 186.124 207.603 186.329 204.796C186.505 202.38 186.725 199.372 186.044 196.207C185.358 193.02 183.005 190.724 179.588 189.909C174.096 188.597 164.503 191.001 155.543 202.089C146.754 212.965 144.107 211.393 140.443 209.217C138.555 208.096 136.412 206.824 132.93 206.923C132.153 206.948 131.39 207.135 130.69 207.473C129.991 207.811 129.369 208.292 128.866 208.885C123.793 214.478 124.412 230.161 124.537 232.519Z" fill="#CFCCE0"/>
<path d="M228.798 232.757H103.08V233.395H228.798V232.757Z" fill="#CFCCE0"/>
<path d="M95.0729 165.039C95.1845 165.815 95.1889 166.602 95.0858 167.378C95.0646 167.554 95.0377 167.727 95.0065 167.898L95.0067 167.9C94.6371 169.737 93.8991 171.48 92.8372 173.023C92.7678 173.123 92.7282 173.176 92.7282 173.176L92.5794 173.062C91.4002 172.119 90.3775 170.995 89.5495 169.732C89.477 169.617 89.4044 169.501 89.3352 169.382C88.7199 168.377 88.3051 167.261 88.1137 166.097L88.1112 166.08C88.0927 165.957 88.0768 165.832 88.0649 165.709C87.968 164.621 88.0614 163.525 88.3409 162.47C88.374 162.338 88.4088 162.209 88.4463 162.081C88.8702 160.662 89.5113 159.318 90.3469 158.097C90.4163 157.996 90.4559 157.944 90.4559 157.944C90.4559 157.944 90.5091 157.983 90.6047 158.058C91.7506 158.974 92.749 160.061 93.5646 161.281C93.6363 161.39 93.7069 161.501 93.7766 161.615C94.2539 162.384 94.622 163.216 94.8702 164.087C94.9126 164.239 94.9503 164.394 94.9828 164.55C95.0187 164.711 95.0483 164.874 95.0729 165.039Z" fill="#CFCCE0"/>
<path d="M133.693 181.174C134.195 181.775 134.611 182.443 134.93 183.158C135.005 183.319 135.072 183.481 135.135 183.643L135.136 183.644C135.784 185.402 136.07 187.273 135.975 189.145C135.968 189.267 135.962 189.332 135.962 189.332L135.775 189.313C134.277 189.13 132.818 188.711 131.451 188.07C131.329 188.011 131.207 187.951 131.085 187.886C130.035 187.353 129.097 186.621 128.324 185.731L128.313 185.718C128.232 185.622 128.154 185.525 128.079 185.426C127.426 184.551 126.931 183.569 126.616 182.524C126.575 182.394 126.537 182.266 126.502 182.137C126.119 180.707 125.961 179.226 126.032 177.747C126.038 177.625 126.045 177.56 126.045 177.56C126.045 177.56 126.11 177.565 126.231 177.579C127.686 177.756 129.106 178.157 130.44 178.767C130.558 178.823 130.676 178.88 130.795 178.94C131.605 179.344 132.354 179.859 133.022 180.469C133.137 180.577 133.251 180.689 133.36 180.805C133.475 180.923 133.586 181.046 133.693 181.174Z" fill="#CFCCE0"/>
<path d="M139.453 106.956L137.855 133.628C137.855 133.628 132.527 148.564 139.453 148.564C146.379 148.564 142.117 132.561 142.117 132.561L148.511 106.423L139.453 106.956Z" fill="#FFB9B9"/>
<path d="M191.133 103.756L192.732 130.427C192.732 130.427 198.059 145.363 191.133 145.363C184.207 145.363 188.469 129.36 188.469 129.36L182.076 103.222L191.133 103.756Z" fill="#FFB9B9"/>
<path d="M159.166 216.843L160.232 230.179C160.232 230.179 155.969 240.847 162.896 241.914C162.965 241.925 163.033 241.935 163.101 241.945C163.96 242.063 164.835 241.976 165.653 241.691C166.472 241.406 167.212 240.932 167.813 240.306C168.413 239.68 168.858 238.921 169.109 238.09C169.361 237.26 169.412 236.381 169.26 235.527L168.223 229.645C168.223 229.645 168.756 218.977 165.56 216.843C162.363 214.709 159.166 216.843 159.166 216.843Z" fill="#2F2E41"/>
<path d="M169.289 205.108C169.289 205.108 168.223 208.308 168.756 211.509C169.289 214.709 169.822 223.778 169.822 223.778C169.822 223.778 169.822 233.379 173.551 233.379C174.883 233.379 176.011 232.223 176.911 230.736C177.842 229.158 178.444 227.408 178.68 225.591C178.916 223.774 178.78 221.928 178.283 220.165L176.215 212.576V206.708L169.289 205.108Z" fill="#2F2E41"/>
<path d="M149.576 107.49C149.576 107.49 137.855 122.959 144.248 145.897C150.642 168.834 151.174 175.235 151.174 175.235L154.904 218.977C154.904 218.977 161.297 221.11 166.625 217.91L165.027 175.769V150.164L168.223 178.436V206.708C168.223 206.708 175.682 214.176 181.01 207.241L182.076 175.769C182.076 175.769 185.272 132.027 183.141 127.76C181.01 123.493 176.215 108.556 176.215 108.556L149.576 107.49Z" fill="#2F2E41"/>
<path d="M160.186 35.5151C160.186 35.5151 154.768 33.5777 151.285 41.3275C147.802 49.0774 142.383 57.6022 142.383 57.6022L145.48 58.3772C145.48 58.3772 146.254 52.9523 148.189 52.1773L147.415 59.1521C147.415 59.1521 170.636 67.2895 181.086 58.3772L180.699 55.6647C180.699 55.6647 182.247 56.0522 182.247 58.3772L183.408 57.2147C183.408 57.2147 182.247 54.8897 178.763 51.7898C176.477 49.7551 175.692 45.8842 175.422 43.4641C175.219 41.4432 174.412 39.5307 173.105 37.9774C170.79 35.2915 166.572 32.4367 160.186 35.5151Z" fill="#2F2E41"/>
<path d="M162.896 61.081C168.486 61.081 173.019 56.5433 173.019 50.9458C173.019 45.3483 168.486 40.8106 162.896 40.8106C157.305 40.8106 152.773 45.3483 152.773 50.9458C152.773 56.5433 157.305 61.081 162.896 61.081Z" fill="#FFB9B9"/>
<path d="M160.232 57.347L157.035 70.1494L166.625 97.8878L174.084 68.5491C174.084 68.5491 167.158 63.7482 168.756 57.347L160.232 57.347Z" fill="#FFB9B9"/>
<path d="M186.338 130.427C186.338 130.427 170.887 136.295 167.691 127.227C164.494 118.158 165.027 111.224 165.027 111.224C165.027 111.224 160.232 129.894 152.24 129.894C144.248 129.894 139.986 127.227 139.986 127.227C139.986 127.227 145.847 108.556 151.174 105.356C151.174 105.356 151.201 105.292 151.249 105.175C151.547 104.428 152.602 101.467 151.862 98.864C151.711 98.3284 151.48 97.8193 151.174 97.3544C149.043 94.1538 146.912 93.0869 147.445 85.0855L143.183 70.1494L157.882 66.7568L165.56 90.9532L172.55 67.2635L185.272 69.0825C185.272 69.0825 186.338 88.2861 181.01 95.2207C180.172 96.3131 179.537 97.547 179.135 98.864C178.208 101.809 178.426 104.908 178.927 107.383H178.932C179.267 109.07 179.785 110.716 180.477 112.29L186.338 130.427Z" fill="#CFCCE0"/>
<path d="M182.076 69.6159L185.273 69.0825C185.273 69.0825 186.605 68.8158 189.002 70.6828C192.064 73.067 192.199 105.356 192.199 105.356L182.076 105.889V69.6159Z" fill="#CFCCE0"/>
<path d="M145.847 71.2162L143.183 70.1494C143.183 70.1494 142.117 69.6159 141.584 72.8165C141.052 76.0171 138.388 109.09 138.388 109.09L149.576 108.556V84.552L145.847 71.2162Z" fill="#CFCCE0"/>
<path d="M151.187 52.4214C151.187 52.4214 154.283 48.159 156.992 47.384C159.701 46.609 160.088 42.7341 160.088 42.7341C160.088 42.7341 167.055 50.4839 171.312 50.8714C175.569 51.2589 171.699 41.5716 171.699 41.5716L163.959 39.6341L156.605 40.4091L150.8 44.284L151.187 52.4214Z" fill="#2F2E41"/>
<path d="M165.826 105.089C167.591 105.089 169.023 103.656 169.023 101.889C169.023 100.121 167.591 98.688 165.826 98.688C164.06 98.688 162.629 100.121 162.629 101.889C162.629 103.656 164.06 105.089 165.826 105.089Z" fill="#2F2E41"/>
<path d="M37.6278 213.872C37.5547 213.753 35.8313 210.871 35.2338 204.889C34.6858 199.4 35.0382 190.149 39.8304 177.243C48.9091 152.795 37.7382 133.069 37.624 132.872L38.1752 132.552C38.2041 132.602 41.0866 137.631 42.7894 145.64C45.0394 156.258 44.2201 167.297 40.4276 177.466C31.3645 201.872 38.1024 213.426 38.1714 213.54L37.6278 213.872Z" fill="#CFCCE0"/>
<path d="M34.0778 131.756C33.1959 131.756 32.3339 131.494 31.6006 131.003C30.8674 130.513 30.2959 129.816 29.9584 129C29.6209 128.184 29.5327 127.287 29.7047 126.421C29.8767 125.555 30.3014 124.759 30.925 124.135C31.5485 123.511 32.343 123.085 33.2079 122.913C34.0729 122.741 34.9694 122.829 35.7841 123.167C36.5988 123.505 37.2952 124.077 37.7851 124.811C38.2751 125.545 38.5366 126.409 38.5366 127.292C38.5353 128.475 38.0651 129.61 37.2292 130.447C36.3933 131.284 35.2599 131.754 34.0778 131.756ZM34.0778 123.465C33.3219 123.465 32.583 123.689 31.9545 124.11C31.326 124.53 30.8362 125.128 30.5469 125.827C30.2576 126.526 30.182 127.296 30.3294 128.038C30.4769 128.78 30.8409 129.462 31.3754 129.997C31.9099 130.532 32.5908 130.897 33.3322 131.044C34.0736 131.192 34.842 131.116 35.5403 130.827C36.2387 130.537 36.8356 130.047 37.2555 129.417C37.6755 128.788 37.8996 128.048 37.8996 127.292C37.8985 126.277 37.4954 125.304 36.7789 124.587C36.0625 123.87 35.0911 123.466 34.0778 123.465Z" fill="#CFCCE0"/>
<path d="M47.1357 146.743C49.4223 146.743 51.2759 144.887 51.2759 142.597C51.2759 140.308 49.4223 138.452 47.1357 138.452C44.849 138.452 42.9954 140.308 42.9954 142.597C42.9954 144.887 44.849 146.743 47.1357 146.743Z" fill="#CFCCE0"/>
<path d="M38.2181 157.265C37.3362 157.265 36.4741 157.004 35.7409 156.513C35.0076 156.023 34.4362 155.325 34.0987 154.51C33.7612 153.694 33.6729 152.796 33.845 151.93C34.017 151.064 34.4416 150.269 35.0652 149.645C35.6888 149.02 36.4833 148.595 37.3482 148.423C38.2131 148.251 39.1096 148.339 39.9244 148.677C40.7391 149.015 41.4354 149.587 41.9254 150.321C42.4153 151.055 42.6768 151.918 42.6768 152.801C42.6755 153.985 42.2053 155.12 41.3694 155.956C40.5335 156.793 39.4002 157.264 38.2181 157.265ZM38.2181 148.975C37.4622 148.975 36.7233 149.199 36.0948 149.62C35.4663 150.04 34.9764 150.638 34.6872 151.337C34.3979 152.036 34.3222 152.806 34.4697 153.548C34.6172 154.29 34.9811 154.972 35.5156 155.507C36.0501 156.042 36.7311 156.407 37.4725 156.554C38.2138 156.702 38.9822 156.626 39.6806 156.336C40.3789 156.047 40.9758 155.556 41.3958 154.927C41.8157 154.298 42.0399 153.558 42.0399 152.801C42.0387 151.787 41.6357 150.814 40.9192 150.097C40.2027 149.379 39.2313 148.976 38.2181 148.975Z" fill="#CFCCE0"/>
<path d="M49.0465 165.875C48.1647 165.875 47.3026 165.613 46.5694 165.123C45.8361 164.632 45.2646 163.935 44.9272 163.119C44.5897 162.303 44.5014 161.406 44.6734 160.54C44.8455 159.674 45.2701 158.878 45.8937 158.254C46.5173 157.63 47.3118 157.205 48.1767 157.032C49.0416 156.86 49.9381 156.949 50.7528 157.286C51.5676 157.624 52.2639 158.197 52.7539 158.931C53.2438 159.665 53.5053 160.528 53.5053 161.411C53.504 162.594 53.0338 163.729 52.1979 164.566C51.362 165.403 50.2287 165.874 49.0465 165.875ZM49.0465 157.584C48.2907 157.584 47.5518 157.809 46.9233 158.229C46.2948 158.65 45.8049 159.247 45.5157 159.946C45.2264 160.646 45.1507 161.415 45.2982 162.157C45.4456 162.9 45.8096 163.581 46.3441 164.117C46.8786 164.652 47.5596 165.016 48.3009 165.164C49.0423 165.311 49.8107 165.236 50.5091 164.946C51.2074 164.656 51.8043 164.166 52.2242 163.537C52.6442 162.907 52.8683 162.168 52.8683 161.411C52.8672 160.396 52.4642 159.424 51.7477 158.706C51.0312 157.989 50.0598 157.585 49.0465 157.584Z" fill="#CFCCE0"/>
<path d="M205.422 199.357C207.709 199.357 209.562 197.501 209.562 195.211C209.562 192.922 207.709 191.066 205.422 191.066C203.136 191.066 201.282 192.922 201.282 195.211C201.282 197.501 203.136 199.357 205.422 199.357Z" fill="white"/>
<path d="M204.148 197.443C203.266 197.443 202.404 197.182 201.671 196.691C200.938 196.2 200.366 195.503 200.029 194.688C199.691 193.872 199.603 192.974 199.775 192.108C199.947 191.242 200.372 190.447 200.995 189.822C201.619 189.198 202.413 188.773 203.278 188.601C204.143 188.428 205.04 188.517 205.855 188.855C206.669 189.193 207.366 189.765 207.856 190.499C208.346 191.233 208.607 192.096 208.607 192.979C208.606 194.163 208.136 195.297 207.3 196.134C206.464 196.971 205.33 197.442 204.148 197.443ZM204.148 189.153C203.392 189.153 202.653 189.377 202.025 189.798C201.396 190.218 200.907 190.816 200.617 191.515C200.328 192.214 200.252 192.983 200.4 193.726C200.547 194.468 200.911 195.15 201.446 195.685C201.98 196.22 202.661 196.584 203.403 196.732C204.144 196.88 204.912 196.804 205.611 196.514C206.309 196.225 206.906 195.734 207.326 195.105C207.746 194.476 207.97 193.736 207.97 192.979C207.969 191.965 207.566 190.992 206.849 190.275C206.133 189.557 205.162 189.154 204.148 189.153Z" fill="#CFCCE0"/>
<path d="M87.2646 222.634C89.5512 222.634 91.4048 220.778 91.4048 218.489C91.4048 216.199 89.5512 214.344 87.2646 214.344C84.9779 214.344 83.1243 216.199 83.1243 218.489C83.1243 220.778 84.9779 222.634 87.2646 222.634Z" fill="white"/>
<path d="M85.9908 220.721C85.1089 220.721 84.2468 220.459 83.5136 219.969C82.7804 219.478 82.2089 218.781 81.8714 217.965C81.5339 217.149 81.4456 216.252 81.6177 215.386C81.7897 214.52 82.2144 213.724 82.8379 213.1C83.4615 212.476 84.256 212.051 85.1209 211.878C85.9858 211.706 86.8823 211.794 87.6971 212.132C88.5118 212.47 89.2082 213.042 89.6981 213.777C90.188 214.511 90.4495 215.374 90.4495 216.257C90.4482 217.44 89.978 218.575 89.1421 219.412C88.3062 220.249 87.1729 220.72 85.9908 220.721ZM85.9908 212.43C85.2349 212.43 84.496 212.655 83.8675 213.075C83.239 213.496 82.7491 214.093 82.4599 214.792C82.1706 215.492 82.0949 216.261 82.2424 217.003C82.3899 217.746 82.7538 218.427 83.2883 218.963C83.8228 219.498 84.5038 219.862 85.2452 220.01C85.9865 220.157 86.755 220.082 87.4533 219.792C88.1516 219.502 88.7485 219.012 89.1685 218.383C89.5884 217.753 89.8126 217.014 89.8126 216.257C89.8114 215.242 89.4084 214.27 88.6919 213.552C87.9755 212.835 87.004 212.431 85.9908 212.43Z" fill="#CFCCE0"/>
<path d="M35.0332 178.949C37.3199 178.949 39.1735 177.093 39.1735 174.803C39.1735 172.514 37.3199 170.658 35.0332 170.658C32.7466 170.658 30.8929 172.514 30.8929 174.803C30.8929 177.093 32.7466 178.949 35.0332 178.949Z" fill="#CFCCE0"/>
<path d="M40.1289 214.025C40.1289 214.025 35.9886 203.821 48.4095 196.168L40.1289 214.025Z" fill="#CFCCE0"/>
<path d="M35.0372 213.84C35.0372 213.84 33.1529 202.989 18.5688 203.082L35.0372 213.84Z" fill="#CFCCE0"/>
<path d="M66.8816 213.387H0V214.025H66.8816V213.387Z" fill="#CFCCE0"/>
</svg>
